<mxfile host="app.diagrams.net" agent="Mozilla/5.0 (Windows NT 10.0; Win64; x64) AppleWebKit/537.36 (KHTML, like Gecko) Chrome/130.0.0.0 Safari/537.36 Edg/130.0.0.0" version="24.8.3">
  <diagram name="Page-1" id="ZxgHQyQEhk4TSwuvWIoU">
    <mxGraphModel dx="1426" dy="791" grid="0" gridSize="10" guides="1" tooltips="1" connect="1" arrows="1" fold="1" page="0" pageScale="1" pageWidth="850" pageHeight="1100" background="#000000" math="0" shadow="0">
      <root>
        <mxCell id="0" />
        <mxCell id="1" parent="0" />
        <mxCell id="LtH9inrNx9ZSC6zaKUov-1" value="" style="endArrow=classic;html=1;rounded=0;strokeColor=#FFFFFF;" edge="1" parent="1">
          <mxGeometry width="50" height="50" relative="1" as="geometry">
            <mxPoint x="68" y="237" as="sourcePoint" />
            <mxPoint x="203" y="237" as="targetPoint" />
          </mxGeometry>
        </mxCell>
        <mxCell id="LtH9inrNx9ZSC6zaKUov-2" value="Con" style="text;html=1;align=center;verticalAlign=middle;whiteSpace=wrap;rounded=0;" vertex="1" parent="1">
          <mxGeometry x="103" y="206" width="60" height="30" as="geometry" />
        </mxCell>
        <mxCell id="LtH9inrNx9ZSC6zaKUov-3" value="" style="endArrow=none;dashed=1;html=1;rounded=0;strokeColor=#FFFFFF;" edge="1" parent="1">
          <mxGeometry width="50" height="50" relative="1" as="geometry">
            <mxPoint x="202.5" y="660" as="sourcePoint" />
            <mxPoint x="202.5" y="181" as="targetPoint" />
          </mxGeometry>
        </mxCell>
        <mxCell id="LtH9inrNx9ZSC6zaKUov-4" value="" style="rounded=0;whiteSpace=wrap;html=1;fillColor=#000000;strokeColor=#FFFFFF;" vertex="1" parent="1">
          <mxGeometry x="143" y="112" width="120" height="60" as="geometry" />
        </mxCell>
        <mxCell id="LtH9inrNx9ZSC6zaKUov-5" value="&lt;font color=&quot;#ffffff&quot;&gt;&lt;u&gt;:System&lt;/u&gt;&lt;/font&gt;" style="text;html=1;align=center;verticalAlign=middle;whiteSpace=wrap;rounded=0;" vertex="1" parent="1">
          <mxGeometry x="173" y="127" width="60" height="30" as="geometry" />
        </mxCell>
        <mxCell id="LtH9inrNx9ZSC6zaKUov-6" value="&lt;font color=&quot;#ffffff&quot;&gt;SearchOff(Description)&lt;/font&gt;" style="text;html=1;align=center;verticalAlign=middle;whiteSpace=wrap;rounded=0;" vertex="1" parent="1">
          <mxGeometry x="45" y="206" width="140" height="30" as="geometry" />
        </mxCell>
        <mxCell id="LtH9inrNx9ZSC6zaKUov-7" value="" style="endArrow=classic;html=1;rounded=0;strokeColor=#FFFFFF;" edge="1" parent="1">
          <mxGeometry width="50" height="50" relative="1" as="geometry">
            <mxPoint x="200" y="282" as="sourcePoint" />
            <mxPoint x="374" y="282" as="targetPoint" />
          </mxGeometry>
        </mxCell>
        <mxCell id="LtH9inrNx9ZSC6zaKUov-8" value="" style="endArrow=none;dashed=1;html=1;rounded=0;strokeColor=#FFFFFF;" edge="1" parent="1">
          <mxGeometry width="50" height="50" relative="1" as="geometry">
            <mxPoint x="371" y="658" as="sourcePoint" />
            <mxPoint x="371" y="176" as="targetPoint" />
          </mxGeometry>
        </mxCell>
        <mxCell id="LtH9inrNx9ZSC6zaKUov-9" value="" style="rounded=0;whiteSpace=wrap;html=1;fillColor=#000000;strokeColor=#FFFFFF;" vertex="1" parent="1">
          <mxGeometry x="312" y="112" width="120" height="60" as="geometry" />
        </mxCell>
        <mxCell id="LtH9inrNx9ZSC6zaKUov-10" value="&lt;font color=&quot;#ffffff&quot;&gt;&lt;u&gt;:LessonOffering&lt;/u&gt;&lt;/font&gt;" style="text;html=1;align=center;verticalAlign=middle;whiteSpace=wrap;rounded=0;" vertex="1" parent="1">
          <mxGeometry x="314" y="127" width="110" height="30" as="geometry" />
        </mxCell>
        <mxCell id="LtH9inrNx9ZSC6zaKUov-11" value="&lt;font color=&quot;#ffffff&quot;&gt;FindOffering(Description)&lt;/font&gt;" style="text;html=1;align=center;verticalAlign=middle;whiteSpace=wrap;rounded=0;" vertex="1" parent="1">
          <mxGeometry x="219" y="251" width="135" height="30" as="geometry" />
        </mxCell>
        <mxCell id="LtH9inrNx9ZSC6zaKUov-22" value="" style="endArrow=none;dashed=1;html=1;rounded=0;strokeColor=#FFFFFF;" edge="1" parent="1">
          <mxGeometry width="50" height="50" relative="1" as="geometry">
            <mxPoint x="526" y="658" as="sourcePoint" />
            <mxPoint x="526" y="176" as="targetPoint" />
          </mxGeometry>
        </mxCell>
        <mxCell id="LtH9inrNx9ZSC6zaKUov-23" value="" style="rounded=0;whiteSpace=wrap;html=1;fillColor=#000000;strokeColor=#FFFFFF;" vertex="1" parent="1">
          <mxGeometry x="467" y="112" width="120" height="60" as="geometry" />
        </mxCell>
        <mxCell id="LtH9inrNx9ZSC6zaKUov-24" value="&lt;font color=&quot;#ffffff&quot;&gt;&lt;u&gt;:LessonOfferingDB&lt;/u&gt;&lt;/font&gt;" style="text;html=1;align=center;verticalAlign=middle;whiteSpace=wrap;rounded=0;" vertex="1" parent="1">
          <mxGeometry x="469" y="127" width="110" height="30" as="geometry" />
        </mxCell>
        <mxCell id="LtH9inrNx9ZSC6zaKUov-26" value="" style="endArrow=classic;html=1;rounded=0;strokeColor=#FFFFFF;" edge="1" parent="1">
          <mxGeometry width="50" height="50" relative="1" as="geometry">
            <mxPoint x="370" y="307" as="sourcePoint" />
            <mxPoint x="524" y="307" as="targetPoint" />
          </mxGeometry>
        </mxCell>
        <mxCell id="LtH9inrNx9ZSC6zaKUov-28" value="&lt;font color=&quot;#ffffff&quot;&gt;retreive(LessonOffering)&lt;/font&gt;" style="text;html=1;align=center;verticalAlign=middle;whiteSpace=wrap;rounded=0;" vertex="1" parent="1">
          <mxGeometry x="379" y="279" width="135" height="30" as="geometry" />
        </mxCell>
        <mxCell id="LtH9inrNx9ZSC6zaKUov-29" value="" style="endArrow=classic;html=1;rounded=0;strokeColor=#FFFFFF;dashed=1;" edge="1" parent="1">
          <mxGeometry width="50" height="50" relative="1" as="geometry">
            <mxPoint x="522" y="371" as="sourcePoint" />
            <mxPoint x="367" y="371" as="targetPoint" />
          </mxGeometry>
        </mxCell>
        <mxCell id="LtH9inrNx9ZSC6zaKUov-31" value="&lt;font color=&quot;#ffffff&quot;&gt;Return(L)&lt;/font&gt;" style="text;html=1;align=center;verticalAlign=middle;whiteSpace=wrap;rounded=0;" vertex="1" parent="1">
          <mxGeometry x="375" y="341" width="135" height="30" as="geometry" />
        </mxCell>
        <mxCell id="LtH9inrNx9ZSC6zaKUov-32" value="" style="endArrow=classic;html=1;rounded=0;strokeColor=#FFFFFF;dashed=1;" edge="1" parent="1">
          <mxGeometry width="50" height="50" relative="1" as="geometry">
            <mxPoint x="369" y="390" as="sourcePoint" />
            <mxPoint x="203" y="390" as="targetPoint" />
          </mxGeometry>
        </mxCell>
        <mxCell id="LtH9inrNx9ZSC6zaKUov-33" value="&lt;font color=&quot;#ffffff&quot;&gt;Return(L)&lt;/font&gt;" style="text;html=1;align=center;verticalAlign=middle;whiteSpace=wrap;rounded=0;" vertex="1" parent="1">
          <mxGeometry x="222" y="360" width="135" height="30" as="geometry" />
        </mxCell>
      </root>
    </mxGraphModel>
  </diagram>
</mxfile>
